<?xml version="1.0" encoding="utf-8"?>
<!-- Generator: Adobe Illustrator 17.1.0, SVG Export Plug-In . SVG Version: 6.00 Build 0)  -->
<!DOCTYPE svg PUBLIC "-//W3C//DTD SVG 1.1//EN" "http://www.w3.org/Graphics/SVG/1.1/DTD/svg11.dtd">
<svg version="1.1" id="Layer_1" xmlns="http://www.w3.org/2000/svg" xmlns:xlink="http://www.w3.org/1999/xlink" x="0px" y="0px"
	 width="170px" height="102px" viewBox="-21.3 -13 170 102" enable-background="new -21.3 -13 170 102" xml:space="preserve">
<path fill="#0156B9" d="M21,22.9c0.3-0.1,0.6-0.2,0.7-0.6c0.3-0.6,0.7-2,0.7-4.5c0-1.8-0.1-3.2-0.3-3.9c-0.2-0.8-0.6-1-1-1.2
	c-0.3-0.1-0.8-0.2-1.5-0.2h-2.3v10.7h2.3C20.2,23.2,20.6,23,21,22.9z M56.3,11.4c-1.1,0-1.8,0.2-2.2,0.6c-0.3,0.3-0.6,0.9-0.6,1.9
	v33.4c0,1,0.2,1.6,0.6,1.9c0.3,0.3,1,0.6,2.2,0.6c1.1,0,1.8-0.2,2.2-0.6c0.3-0.3,0.6-0.9,0.6-1.9V13.9c0-1-0.2-1.6-0.6-1.9
	C58.1,11.6,57.5,11.4,56.3,11.4z M21.2,35.5c-0.5-0.1-1-0.2-1.9-0.2h-2v13.3h2c0.8,0,1.5,0,1.8-0.2c0.5-0.1,0.6-0.3,0.8-0.7
	c0.5-0.7,0.7-2.5,0.7-5.8c0-2.5-0.1-4.1-0.3-5.1C22,36,21.8,35.7,21.2,35.5z M122.2,12.5h-2v36h2c1.1,0,1.7-0.2,2-0.8
	c0.5-0.6,0.7-1.7,0.7-3.6V16.9c0-1.9-0.2-3.1-0.7-3.6C123.9,12.7,123.3,12.5,122.2,12.5z M-6.7-13L-6.7-13L-21.3,1.6v3.7L-6.7-9.3
	v2.5L-21.3,7.9v3.7L-6.7-3.1v2.5L-21.3,14v3.7L-6.7,3v2.5l-14.6,14.6v3.7L-6.7,9.1v2.5l-14.6,14.6V30l14.6-14.7v2.5l-14.6,14.6v3.7
	l14.6-14.7v2.5l-14.6,14.6v3.7l14.6-14.7V30l-14.6,14.6v3.6l14.6-14.6v2.5l-14.6,14.6v3.7l14.6-14.7v2.5l-14.6,14.6v3.7l14.6-14.6
	v2.5l-14.6,14.5v3.7l14.6-14.6v2.5l-14.6,14.6v3.7l14.6-14.7v2.5l-14.6,14.6v3.5l14.6-14.5v2.5l-14.6,14.6v3.7l14.6-14.7v2.5
	l-14.6,14.6V89h2.2l14.6-14.6H-2L-16.7,89h3.6L1.6,74.4H4L-10.5,89h3.7L7.8,74.4h2.5L-4.4,89h3.7l14.6-14.6h2.5L1.7,89h3.7
	l14.6-14.6h2.5L7.8,89h3.7l14.6-14.6h2.5L13.9,89h3.7l14.6-14.6h2.5L20.1,89h3.7l14.6-14.6h2.5L26.3,89H30l14.6-14.6h2.5L32.4,89
	h3.7l14.6-14.6h2.5L38.5,89h3.7l14.6-14.6h2.5L44.7,89h3.7l14.5-14.6h2.5L50.8,89h3.7l14.6-14.6h2.5L56.9,89h3.7l14.6-14.6h2.4
	L63,89h3.7l14.6-14.6h2.5L69.1,89h3.7l14.6-14.6H90L75.3,89H79l14.6-14.6h2.5L81.5,89h3.7l14.6-14.6h2.5L87.6,89h3.6l14.6-14.6h2.5
	L93.7,89h3.7l14.6-14.6h2.5L99.9,89h3.7l14.6-14.6h2.5L106,89h3.7l14.6-14.6h2.5L112.1,89h3.7l14.6-14.6h2.5L118.2,89h3.7l14.6-14.6
	h2.5L124.3,89h3.7l14.6-14.6h2.5L130.5,89h3.6l14.6-14.6V-13H-6.7z M36.3,48c0,4.1-1,7.4-3.3,9.5c-2.3,2.2-5.8,3.3-10.5,3.3h-18
	c-0.2,0-0.3-0.1-0.6-0.2c-0.1-0.1-0.2-0.3-0.2-0.6V1.1c0-0.2,0.1-0.3,0.2-0.6C4,0.4,4.2,0.3,4.4,0.3H22c4.8,0,8.3,1,10.5,3.3
	s3.3,5.4,3.3,9.5v5.1c0,2.3-0.3,4.6-1.6,6.7c-0.9,1.6-2.3,2.9-4.3,4c1.8,0.6,3.2,1.6,4.2,2.9c1.4,1.8,1.9,4.3,1.9,7.4L36.3,48
	L36.3,48z M72.7,47.3c0,5.7-1.2,9.4-4.1,11.7s-6.9,2.9-12.2,2.9s-9.4-0.7-12.2-2.9c-2.8-2.3-4.1-6-4.1-11.7V13.7
	c0-5.7,1.2-9.4,4.1-11.7c2.8-2.3,7.5-2.6,12.8-2.6s8.8,0.3,11.7,2.6s4.1,6,4.1,11.7V47.3z M102.7,60.1c0,0.2-0.1,0.3-0.2,0.6
	c-0.1,0.1-0.3,0.2-0.6,0.2H77.2c-0.2,0-0.3-0.1-0.6-0.2c-0.1-0.1-0.2-0.3-0.2-0.6v-59c0-0.2,0.1-0.3,0.2-0.6
	c0.1-0.1,0.3-0.2,0.6-0.2h12.1c0.2,0,0.3,0.1,0.6,0.2c0.1,0.1,0.2,0.3,0.2,0.6v47.6h12c0.2,0,0.3,0.1,0.6,0.2
	c0.1,0.1,0.2,0.3,0.2,0.6L102.7,60.1L102.7,60.1z M138.5,46.2c0,5.7-1.2,9.4-4.1,11.7c-2.8,2.3-6.9,2.9-12.2,2.9h-14.8
	c-0.2,0-0.3-0.1-0.6-0.2c-0.1-0.1-0.2-0.3-0.2-0.6V1.1c0-0.2,0.1-0.3,0.2-0.6c0.1-0.1,0.3-0.2,0.6-0.2h14.8c5.3,0,9.4,0.7,12.2,2.9
	c2.8,2.3,4.1,6,4.1,11.7V46.2z"/>
</svg>
