<?xml version="1.0" encoding="utf-8"?>
<!-- Generator: Adobe Illustrator 17.1.0, SVG Export Plug-In . SVG Version: 6.00 Build 0)  -->
<!DOCTYPE svg PUBLIC "-//W3C//DTD SVG 1.1//EN" "http://www.w3.org/Graphics/SVG/1.1/DTD/svg11.dtd">
<svg version="1.1" id="Layer_1" xmlns="http://www.w3.org/2000/svg" xmlns:xlink="http://www.w3.org/1999/xlink" x="0px" y="0px"
	 width="160px" height="110.8px" viewBox="-49.7 -34.4 160 110.8" enable-background="new -49.7 -34.4 160 110.8"
	 xml:space="preserve">
<g>
	<circle fill="#80C242" cx="91.9" cy="58" r="18.4"/>
	<path fill="#2B3945" d="M61.1-34.4c-11.7,0-22.4,4-30.8,10.8c-8.4-6.8-19.1-10.8-30.7-10.8c-27.2,0-49.3,22.1-49.3,49.3v61.6h18.4
		l0,0c0,0,0,0,0.1,0c10.2,0,18.4-8.3,18.4-18.4l0,0l0,0V14.9l0,0c0-7.1,5.3-12.3,12.2-12.3c7.3,0,12.4,5.2,12.4,12.3l0,0v61.6h18.4
		c10.2,0,18.4-8.3,18.4-18.4l0,0l0,0V14.9l0,0c0-7.1,5.3-12.3,12.2-12.3c7.3,0,12.4,5.2,12.4,12.3l0,0v12.3h37V14.9
		C110.4-12.4,88.3-34.4,61.1-34.4z"/>
</g>
</svg>
