<?xml version="1.0" encoding="utf-8"?>
<!-- Generator: Adobe Illustrator 17.1.0, SVG Export Plug-In . SVG Version: 6.00 Build 0)  -->
<!DOCTYPE svg PUBLIC "-//W3C//DTD SVG 1.1//EN" "http://www.w3.org/Graphics/SVG/1.1/DTD/svg11.dtd">
<svg version="1.1" id="Layer_1" xmlns="http://www.w3.org/2000/svg" xmlns:xlink="http://www.w3.org/1999/xlink" x="0px" y="0px"
	 width="230px" height="95.9px" viewBox="29 4.1 230 95.9" enable-background="new 29 4.1 230 95.9" xml:space="preserve">
<g>
	<path fill="#E90C8B" d="M97.4,50.6l-10.2,0.7c-5.1,0.3-8.5,1.8-8.5,6.2c0,6.1,6.1,6.7,9.9,6.7c5.9,0,13.8-2.6,13.8-9.9v-5.6h-0.1
		C101.6,49.8,99.9,50.5,97.4,50.6z"/>
	<path fill="#E90C8B" d="M29,4.1v81.8h97.4l17.6,14l17.6-14.2H259V4.1H29z M72.7,65.8H70v-6.6h-0.1c-1.5,3.6-5.6,7.6-13.4,7.6
		c-10.5,0-16-7.6-16-16c0-9.5,6.9-16,16-16c7.4,0,11.6,4.1,13.4,7.4H70V24h2.6V65.8z M109.7,65.9c-0.8,0.3-1.9,0.6-3.3,0.6
		c-3.6,0-3.6-2.6-3.6-6.6h-0.1c-3.3,6.1-10.3,6.9-14.3,6.9c-2.6,0-12.3,0-12.3-9.2c0-6.1,5.2-8.3,11.3-8.5l10.5-0.7
		c3.2-0.1,4.5-0.7,4.5-4.3c0-4.1-2.3-6.7-11.2-6.7c-7.9,0-10.3,2.5-11.2,7.9h-2.6c1-7.6,5-10.2,13.9-10.2c8.7,0,13.8,1.9,13.8,8.7
		v16.8c0,2.3,0,3.6,1.9,3.6c0.8,0,1.8-0.1,2.6-0.6V65.9L109.7,65.9z M131.3,66.7c-16.9,0-22.2-13.6-22.2-21.9s5.2-21.8,22.2-21.8
		s22.2,13.6,22.2,21.9S148.3,66.7,131.3,66.7z M205.6,65.8h-2.6V27.9h-0.1l-20.2,38h-2.6l-20.2-38.1h-0.1v38.1h-2.6V24h4.1
		l20.4,38.4L201.6,24h4.1v41.7H205.6z M245.2,65.8l-6.1-13.5h-23l-6.1,13.5h-3.2l19-41.7h3.2l19.3,41.9h-3.2V65.8z"/>
	<path fill="#E90C8B" d="M131.3,25.4c-12.7,0-19.6,9.5-19.6,19.6s6.9,19.6,19.6,19.6c12.7,0,19.6-9.6,19.6-19.6
		C150.7,34.9,143.9,25.4,131.3,25.4z"/>
	<polygon fill="#E90C8B" points="217,50.1 237.9,50.1 227.5,27.1 	"/>
	<path fill="#E90C8B" d="M56.5,37.3c-6.9,0-13.4,4.3-13.4,13.5c0,8.5,5.6,13.6,12.9,13.6c11.2,0,14.2-7.9,14.2-13.4
		C70.2,40.7,62.7,37.3,56.5,37.3z"/>
</g>
</svg>
